<?xml version="1.0" standalone="no"?>
<!DOCTYPE svg PUBLIC "-//W3C//DTD SVG 20010904//EN"
 "http://www.w3.org/TR/2001/REC-SVG-20010904/DTD/svg10.dtd">
<svg version="1.0" xmlns="http://www.w3.org/2000/svg"
 width="300.000000pt" height="300.000000pt" viewBox="0 0 300.000000 300.000000"
 preserveAspectRatio="xMidYMid meet">
<metadata>
Created by potrace 1.10, written by Peter Selinger 2001-2011
</metadata>
<g transform="translate(0.000000,300.000000) scale(0.100000,-0.100000)"
fill="#000000" stroke="none">
<path d="M1450 2311 l0 -38 93 -6 c120 -7 191 -26 307 -84 81 -40 110 -62 190
-143 81 -80 103 -110 143 -190 67 -134 82 -199 82 -350 0 -151 -15 -216 -82
-350 -96 -193 -298 -352 -515 -404 l-28 -6 0 357 0 358 146 -2 146 -1 -1 -151
-2 -151 46 0 45 0 0 350 0 350 -45 0 -46 0 3 -155 3 -155 -192 0 -193 0 0
-445 c0 -513 -15 -457 118 -429 210 43 415 177 531 347 162 237 196 541 90
805 -124 310 -444 532 -769 532 l-70 0 0 -39z m530 -815 c0 -32 -11 -39 -32
-19 -17 15 -17 18 -2 34 20 22 34 16 34 -15z"/>
<path d="M1260 2316 c-101 -31 -142 -50 -224 -103 -187 -121 -325 -322 -371
-543 -19 -91 -19 -249 0 -340 70 -334 333 -596 667 -664 42 -9 93 -16 113 -16
34 0 35 1 35 39 l0 38 -57 6 c-94 10 -172 34 -273 84 -81 39 -109 60 -191 142
-82 82 -103 110 -142 191 -69 139 -82 199 -81 360 0 119 4 145 27 215 72 214
204 367 402 465 55 28 106 50 113 50 10 0 12 -92 10 -469 -3 -453 -4 -470 -23
-491 -32 -36 -76 -51 -118 -39 -41 11 -77 51 -77 85 0 22 -4 24 -46 24 l-47 0
6 -37 c14 -86 105 -163 192 -163 53 0 121 35 159 83 l31 39 5 534 c6 615 20
550 -110 510z m70 -58 c0 -21 -1 -21 -20 -3 -15 14 -17 21 -8 26 17 11 28 2
28 -23z"/>
<path d="M1552 1739 l3 -111 43 -2 42 -2 0 113 0 113 -45 0 -46 0 3 -111z"/>
</g>
</svg>
